<svg width="32" height="32" viewBox="0 0 32 32" fill="none" xmlns="http://www.w3.org/2000/svg">
<g clip-path="url(#clip0_369_2267)">
<path d="M14.0111 27.5664C10.514 31.0864 4.57115 32.2522 1.14258 28.7322C5.71401 24.0007 1.14258 21.715 4.57115 18.2864C5.17317 17.6158 5.90562 17.075 6.72374 16.6971C7.54185 16.3191 8.42844 16.1119 9.32933 16.0882C10.2302 16.0645 11.1265 16.2248 11.9633 16.5592C12.8002 16.8936 13.5601 17.3951 14.1965 18.0331C14.833 18.6711 15.3327 19.4323 15.665 20.2699C15.9974 21.1076 16.1555 22.0043 16.1295 22.9051C16.1036 23.8059 15.8943 24.692 15.5144 25.5092C15.1344 26.3264 14.5918 27.0575 13.9197 27.6579L14.0111 27.5664Z" stroke="#BAFF4A" stroke-linecap="round" stroke-linejoin="round"/>
<path d="M29.532 2.46917C29.0887 2.02871 28.5598 1.68381 27.9779 1.45579C27.3961 1.22777 26.7737 1.12147 26.1491 1.14345C25.525 1.16042 24.911 1.30505 24.3449 1.56844C23.7788 1.83183 23.2727 2.20838 22.8577 2.67488L10.5605 16.3892C11.8792 16.6503 13.0848 17.313 14.012 18.2863C14.8459 19.1168 15.452 20.148 15.772 21.2806L29.3263 9.14345C29.79 8.73111 30.1649 8.22866 30.4282 7.66672C30.6915 7.10478 30.8376 6.49512 30.8577 5.87488C30.8828 5.24655 30.7781 4.61979 30.55 4.03378C30.3219 3.44778 29.9753 2.91514 29.532 2.46917Z" stroke="#BAFF4A" stroke-linecap="round" stroke-linejoin="round"/>
</g>
<defs>
<clipPath id="clip0_369_2267">
<rect width="32" height="32" fill="white"/>
</clipPath>
</defs>
</svg>
