<svg width="24" height="25" viewBox="0 0 24 25" fill="none" xmlns="http://www.w3.org/2000/svg">
<path d="M12.0268 6.3125C8.59821 6.3125 5.86607 9.09821 5.86607 12.4732C5.86607 15.9018 8.59821 18.6339 12.0268 18.6339C15.4018 18.6339 18.1875 15.9018 18.1875 12.4732C18.1875 9.09821 15.4018 6.3125 12.0268 6.3125ZM12.0268 16.4911C9.83036 16.4911 8.00893 14.7232 8.00893 12.4732C8.00893 10.2768 9.77679 8.50893 12.0268 8.50893C14.2232 8.50893 15.9911 10.2768 15.9911 12.4732C15.9911 14.7232 14.2232 16.4911 12.0268 16.4911ZM19.8482 6.09821C19.8482 5.29464 19.2054 4.65179 18.4018 4.65179C17.5982 4.65179 16.9554 5.29464 16.9554 6.09821C16.9554 6.90179 17.5982 7.54464 18.4018 7.54464C19.2054 7.54464 19.8482 6.90179 19.8482 6.09821ZM23.9196 7.54464C23.8125 5.61607 23.3839 3.90179 21.9911 2.50893C20.5982 1.11607 18.8839 0.6875 16.9554 0.580357C14.9732 0.473214 9.02679 0.473214 7.04464 0.580357C5.11607 0.6875 3.45536 1.11607 2.00893 2.50893C0.616071 3.90179 0.1875 5.61607 0.0803571 7.54464C-0.0267857 9.52679 -0.0267857 15.4732 0.0803571 17.4554C0.1875 19.3839 0.616071 21.0446 2.00893 22.4911C3.45536 23.8839 5.11607 24.3125 7.04464 24.4196C9.02679 24.5268 14.9732 24.5268 16.9554 24.4196C18.8839 24.3125 20.5982 23.8839 21.9911 22.4911C23.3839 21.0446 23.8125 19.3839 23.9196 17.4554C24.0268 15.4732 24.0268 9.52679 23.9196 7.54464ZM21.3482 19.5446C20.9732 20.6161 20.1161 21.4196 19.0982 21.8482C17.4911 22.4911 13.7411 22.3304 12.0268 22.3304C10.2589 22.3304 6.50893 22.4911 4.95536 21.8482C3.88393 21.4196 3.08036 20.6161 2.65179 19.5446C2.00893 17.9911 2.16964 14.2411 2.16964 12.4732C2.16964 10.7589 2.00893 7.00893 2.65179 5.40179C3.08036 4.38393 3.88393 3.58036 4.95536 3.15179C6.50893 2.50893 10.2589 2.66964 12.0268 2.66964C13.7411 2.66964 17.4911 2.50893 19.0982 3.15179C20.1161 3.52679 20.9196 4.38393 21.3482 5.40179C21.9911 7.00893 21.8304 10.7589 21.8304 12.4732C21.8304 14.2411 21.9911 17.9911 21.3482 19.5446Z" fill="#BAFF4A"/>
</svg>
