<svg width="32" height="32" viewBox="0 0 32 32" fill="none" xmlns="http://www.w3.org/2000/svg">
<path d="M28.9469 11.6136C30.6136 9.9469 29.8536 8.00023 28.9469 7.05356L24.9469 3.05356C23.2669 1.3869 21.3336 2.1469 20.3869 3.05356L18.1202 5.33356H14.6669C12.1336 5.33356 10.6669 6.6669 9.92023 8.20023L4.00023 14.1202V19.4536L3.05356 20.3869C1.3869 22.0669 2.1469 24.0002 3.05356 24.9469L7.05356 28.9469C7.77356 29.6669 8.5469 29.9336 9.28023 29.9336C10.2269 29.9336 11.0936 29.4669 11.6136 28.9469L15.2136 25.3336H20.0002C22.2669 25.3336 23.4136 23.9202 23.8269 22.5336C25.3336 22.1336 26.1602 20.9869 26.4936 19.8669C28.5602 19.3336 29.3336 17.3736 29.3336 16.0002V12.0002H28.5469L28.9469 11.6136ZM26.6669 16.0002C26.6669 16.6002 26.4136 17.3336 25.3336 17.3336H24.0002V18.6669C24.0002 19.2669 23.7469 20.0002 22.6669 20.0002H21.3336V21.3336C21.3336 21.9336 21.0802 22.6669 20.0002 22.6669H14.1202L9.7469 27.0402C9.33356 27.4269 9.09356 27.2002 8.9469 27.0536L4.96023 23.0802C4.57356 22.6669 4.80023 22.4269 4.9469 22.2802L6.6669 20.5469V15.2136L9.33356 12.5469V14.6669C9.33356 16.2802 10.4002 18.6669 13.3336 18.6669C16.2669 18.6669 17.3336 16.2802 17.3336 14.6669H26.6669V16.0002ZM27.0536 9.72023L24.7869 12.0002H14.6669V14.6669C14.6669 15.2669 14.4136 16.0002 13.3336 16.0002C12.2536 16.0002 12.0002 15.2669 12.0002 14.6669V10.6669C12.0002 10.0536 12.2269 8.00023 14.6669 8.00023H19.2136L22.2536 4.96023C22.6669 4.57356 22.9069 4.80023 23.0536 4.9469L27.0402 8.92023C27.4269 9.33356 27.2002 9.57356 27.0536 9.72023Z" fill="#BAFF4A"/>
</svg>
