<svg width="32" height="32" viewBox="0 0 32 32" fill="none" xmlns="http://www.w3.org/2000/svg">
<path d="M4.66722 10.6677C4.66748 9.40363 4.99452 8.16105 5.61658 7.06058C6.23864 5.96012 7.13461 5.03914 8.21754 4.38703C9.30047 3.73492 10.5336 3.37381 11.7972 3.33876C13.0608 3.3037 14.3121 3.59589 15.4295 4.18697C16.5469 4.77804 17.4925 5.64793 18.1747 6.71222C18.8568 7.77651 19.2522 8.99904 19.3225 10.2612C19.3929 11.5234 19.1357 12.7823 18.5761 13.9158C18.0165 15.0492 17.1734 16.0188 16.1286 16.7304C18.3786 17.5557 20.3301 19.0354 21.7321 20.9791C23.134 22.9228 23.9222 25.2416 23.9952 27.6371C23.9921 27.8953 23.8893 28.1424 23.7083 28.3267C23.5274 28.511 23.2822 28.6182 23.024 28.6259C22.7658 28.6337 22.5146 28.5414 22.3229 28.3683C22.1312 28.1952 22.0138 27.9547 21.9952 27.6971C21.9158 25.099 20.8279 22.634 18.9621 20.8243C17.0963 19.0146 14.5992 18.0025 11.9999 18.0025C9.40062 18.0025 6.90348 19.0146 5.03766 20.8243C3.17184 22.634 2.08395 25.099 2.00455 27.6971C1.99121 27.9582 1.87612 28.2037 1.68397 28.381C1.49181 28.5583 1.23786 28.6533 0.976519 28.6456C0.715179 28.6379 0.467237 28.5282 0.28581 28.3399C0.104382 28.1517 0.0038995 27.8999 0.00588835 27.6384C0.0786235 25.2427 0.866697 22.9236 2.26867 20.9796C3.67064 19.0356 5.62234 17.5557 7.87255 16.7304C6.88433 16.0579 6.07561 15.1539 5.51692 14.0972C4.95822 13.0404 4.66651 11.8631 4.66722 10.6677ZM12.0006 5.33441C10.5861 5.33441 9.22951 5.89631 8.22932 6.89651C7.22912 7.8967 6.66722 9.25325 6.66722 10.6677C6.66722 12.0822 7.22912 13.4388 8.22932 14.439C9.22951 15.4392 10.5861 16.0011 12.0006 16.0011C13.415 16.0011 14.7716 15.4392 15.7718 14.439C16.772 13.4388 17.3339 12.0822 17.3339 10.6677C17.3339 9.25325 16.772 7.8967 15.7718 6.89651C14.7716 5.89631 13.415 5.33441 12.0006 5.33441ZM23.0539 10.6677C22.8566 10.6677 22.6646 10.6811 22.4752 10.7077C22.343 10.7314 22.2074 10.7282 22.0765 10.6983C21.9456 10.6685 21.822 10.6125 21.7132 10.5339C21.6043 10.4552 21.5125 10.3554 21.443 10.2405C21.3736 10.1255 21.328 9.99776 21.309 9.86482C21.29 9.73188 21.298 9.59647 21.3325 9.46668C21.367 9.33689 21.4272 9.21537 21.5097 9.10938C21.5921 9.00338 21.6951 8.91508 21.8124 8.84974C21.9297 8.7844 22.059 8.74337 22.1926 8.72908C23.5187 8.53735 24.8709 8.79201 26.0364 9.45297C27.2019 10.1139 28.1145 11.1437 28.6307 12.3802C29.1468 13.6167 29.2372 14.9897 28.8875 16.2831C28.5379 17.5766 27.7681 18.7171 26.6992 19.5251C28.2704 20.2286 29.6044 21.3717 30.5404 22.8166C31.4763 24.2614 31.9742 25.9462 31.9739 27.6677C31.9739 27.933 31.8685 28.1873 31.681 28.3748C31.4935 28.5624 31.2391 28.6677 30.9739 28.6677C30.7087 28.6677 30.4543 28.5624 30.2668 28.3748C30.0792 28.1873 29.9739 27.933 29.9739 27.6677C29.9737 26.1799 29.4943 24.7318 28.6067 23.5377C27.7191 22.3437 26.4705 21.4673 25.0459 21.0384L24.3339 20.8251V18.5904L24.8806 18.3117C25.6909 17.9013 26.3393 17.2297 26.721 16.4054C27.1027 15.5811 27.1955 14.6522 26.9843 13.7688C26.7732 12.8853 26.2705 12.0987 25.5573 11.536C24.8442 10.9734 23.9623 10.6675 23.0539 10.6677Z" fill="#BAFF4A"/>
</svg>
